<?xml version="1.0" encoding="utf-8"?>
<!-- Generator: Adobe Illustrator 27.5.0, SVG Export Plug-In . SVG Version: 6.00 Build 0)  -->
<svg version="1.1" xmlns="http://www.w3.org/2000/svg" xmlns:xlink="http://www.w3.org/1999/xlink" x="0px" y="0px"
	 viewBox="0 0 500 500" style="enable-background:new 0 0 500 500;" xml:space="preserve">
<g id="Background_Simple">
	<g>
		<path style="fill:#92E3A9;" d="M461.993,210.745c-0.476-18.553-1.602-36.989-9.007-55.035
			c-18.678-45.52-54.443-83.944-96.486-109.008c-36.342-21.665-90.54-37.982-130.501-15.685
			c-22.402,12.5-40.507,31.671-60.464,47.51c-8.973,7.121-18.574,14.703-29.398,18.808c-13.88,5.264-28.786,4.823-42.575,10.985
			c-33.195,14.834-65.245,42.108-73.258,79.598c-9.612,44.975,17.714,85.876,28.294,128.335c5.749,23.069,3.601,44.023-2.211,66.805
			C41.853,400.836,27.49,425.37,29,443.913C30,456.188,33,464,33,464s430.736,0,431,0c7.412,0,18.726-52.596,19.778-57.528
			c5.903-27.676,8.559-56.49,3.881-84.563c-3.467-20.803-16.61-38.146-21.299-58.443
			C462.312,245.942,462.443,228.291,461.993,210.745z"/>
		<path style="opacity:0.7;fill:#FFFFFF;" d="M461.993,210.745c-0.476-18.553-1.602-36.989-9.007-55.035
			c-18.678-45.52-54.443-83.944-96.486-109.008c-36.342-21.665-90.54-37.982-130.501-15.685
			c-22.402,12.5-40.507,31.671-60.464,47.51c-8.973,7.121-18.574,14.703-29.398,18.808c-13.88,5.264-28.786,4.823-42.575,10.985
			c-33.195,14.834-65.245,42.108-73.258,79.598c-9.612,44.975,17.714,85.876,28.294,128.335c5.749,23.069,3.601,44.023-2.211,66.805
			C41.853,400.836,27.49,425.37,29,443.913C30,456.188,33,464,33,464s430.736,0,431,0c7.412,0,18.726-52.596,19.778-57.528
			c5.903-27.676,8.559-56.49,3.881-84.563c-3.467-20.803-16.61-38.146-21.299-58.443
			C462.312,245.942,462.443,228.291,461.993,210.745z"/>
	</g>
</g>
<g id="Buildings">
	<g style="opacity:0.3;">
		<g>
			<rect x="199.987" y="303.946" style="fill:none;stroke:#000000;stroke-miterlimit:10;" width="8.734" height="8.801"/>
			<rect x="190.544" y="309.273" style="fill:none;stroke:#000000;stroke-miterlimit:10;" width="3.541" height="3.474"/>
			<line style="fill:none;stroke:#000000;stroke-miterlimit:10;" x1="28.792" y1="171.743" x2="28.792" y2="425.898"/>
			<polyline style="fill:none;stroke:#000000;stroke-miterlimit:10;" points="103.696,132.647 90.375,132.647 90.375,124.827 
				50.297,124.827 50.297,133.162 28.792,133.162 28.792,164.605 			"/>
			<polyline style="fill:none;stroke:#000000;stroke-miterlimit:10;" points="443.612,333.175 443.612,393.557 423.263,393.557 
				423.263,170.694 353.497,170.694 353.497,339.234 327.991,339.234 327.991,320.575 334.671,320.575 334.671,312.687 
				278.887,312.687 278.887,199.618 282.497,199.618 282.497,193.702 214.788,193.702 214.788,199.618 219.643,199.618 
				219.643,312.879 166.131,312.879 166.131,393.881 138.031,393.881 138.031,146.332 119.7,146.332 119.7,132.647 109.736,132.647 
							"/>
			<polyline style="fill:none;stroke:#000000;stroke-miterlimit:10;" points="483.187,282.448 440.924,282.448 440.924,289.678 
				443.612,289.678 443.612,327.135 			"/>
			<rect x="350.391" y="168.257" style="fill:none;stroke:#000000;stroke-miterlimit:10;" width="75.652" height="2.42"/>
		</g>
		<g>
			<rect x="225.702" y="206.192" style="fill:none;stroke:#000000;stroke-miterlimit:10;" width="8.521" height="9.122"/>
			<rect x="238.2" y="206.192" style="fill:none;stroke:#000000;stroke-miterlimit:10;" width="8.521" height="9.122"/>
			<rect x="250.698" y="206.192" style="fill:none;stroke:#000000;stroke-miterlimit:10;" width="8.521" height="9.122"/>
			<rect x="263.196" y="206.192" style="fill:none;stroke:#000000;stroke-miterlimit:10;" width="8.521" height="9.122"/>
			<rect x="225.702" y="220.654" style="fill:none;stroke:#000000;stroke-miterlimit:10;" width="8.521" height="9.122"/>
			<rect x="238.2" y="220.654" style="fill:none;stroke:#000000;stroke-miterlimit:10;" width="8.521" height="9.122"/>
			<rect x="250.698" y="220.654" style="fill:none;stroke:#000000;stroke-miterlimit:10;" width="8.521" height="9.122"/>
			<rect x="263.196" y="220.654" style="fill:none;stroke:#000000;stroke-miterlimit:10;" width="8.521" height="9.122"/>
			<rect x="225.702" y="235.117" style="fill:none;stroke:#000000;stroke-miterlimit:10;" width="8.521" height="9.122"/>
			<rect x="238.2" y="235.117" style="fill:none;stroke:#000000;stroke-miterlimit:10;" width="8.521" height="9.122"/>
			<rect x="250.698" y="235.117" style="fill:none;stroke:#000000;stroke-miterlimit:10;" width="8.521" height="9.122"/>
			<rect x="263.196" y="235.117" style="fill:none;stroke:#000000;stroke-miterlimit:10;" width="8.521" height="9.122"/>
			<rect x="225.702" y="249.579" style="fill:none;stroke:#000000;stroke-miterlimit:10;" width="8.521" height="9.122"/>
			<rect x="238.2" y="249.579" style="fill:none;stroke:#000000;stroke-miterlimit:10;" width="8.521" height="9.122"/>
			<rect x="250.698" y="249.579" style="fill:none;stroke:#000000;stroke-miterlimit:10;" width="8.521" height="9.122"/>
			<rect x="263.196" y="249.579" style="fill:none;stroke:#000000;stroke-miterlimit:10;" width="8.521" height="9.122"/>
			<rect x="225.702" y="264.041" style="fill:none;stroke:#000000;stroke-miterlimit:10;" width="8.521" height="9.122"/>
			<rect x="238.2" y="264.041" style="fill:none;stroke:#000000;stroke-miterlimit:10;" width="8.521" height="9.122"/>
			<rect x="250.698" y="264.041" style="fill:none;stroke:#000000;stroke-miterlimit:10;" width="8.521" height="9.122"/>
			<rect x="263.196" y="264.041" style="fill:none;stroke:#000000;stroke-miterlimit:10;" width="8.521" height="9.122"/>
			<rect x="225.702" y="278.503" style="fill:none;stroke:#000000;stroke-miterlimit:10;" width="8.521" height="9.122"/>
			<rect x="238.2" y="278.503" style="fill:none;stroke:#000000;stroke-miterlimit:10;" width="8.521" height="9.122"/>
			<rect x="250.698" y="278.503" style="fill:none;stroke:#000000;stroke-miterlimit:10;" width="8.521" height="9.122"/>
			<rect x="263.196" y="278.503" style="fill:none;stroke:#000000;stroke-miterlimit:10;" width="8.521" height="9.122"/>
			<rect x="225.702" y="292.965" style="fill:none;stroke:#000000;stroke-miterlimit:10;" width="8.521" height="9.122"/>
			<rect x="238.2" y="292.965" style="fill:none;stroke:#000000;stroke-miterlimit:10;" width="8.521" height="9.122"/>
			<rect x="250.698" y="292.965" style="fill:none;stroke:#000000;stroke-miterlimit:10;" width="8.521" height="9.122"/>
			<rect x="263.196" y="292.965" style="fill:none;stroke:#000000;stroke-miterlimit:10;" width="8.521" height="9.122"/>
			<rect x="225.702" y="307.428" style="fill:none;stroke:#000000;stroke-miterlimit:10;" width="8.521" height="9.122"/>
			<rect x="238.2" y="307.428" style="fill:none;stroke:#000000;stroke-miterlimit:10;" width="8.521" height="9.122"/>
			<rect x="250.698" y="307.428" style="fill:none;stroke:#000000;stroke-miterlimit:10;" width="8.521" height="9.122"/>
			<rect x="263.196" y="307.428" style="fill:none;stroke:#000000;stroke-miterlimit:10;" width="8.521" height="9.122"/>
		</g>
		<g>
			<rect x="225.702" y="320.656" style="fill:none;stroke:#000000;stroke-miterlimit:10;" width="8.521" height="9.122"/>
			<rect x="238.2" y="320.656" style="fill:none;stroke:#000000;stroke-miterlimit:10;" width="8.521" height="9.122"/>
			<rect x="250.698" y="320.656" style="fill:none;stroke:#000000;stroke-miterlimit:10;" width="8.521" height="9.122"/>
			<rect x="263.196" y="320.656" style="fill:none;stroke:#000000;stroke-miterlimit:10;" width="8.521" height="9.122"/>
			<rect x="225.702" y="335.118" style="fill:none;stroke:#000000;stroke-miterlimit:10;" width="8.521" height="9.122"/>
			<rect x="238.2" y="335.118" style="fill:none;stroke:#000000;stroke-miterlimit:10;" width="8.521" height="9.122"/>
			<rect x="250.698" y="335.118" style="fill:none;stroke:#000000;stroke-miterlimit:10;" width="8.521" height="9.122"/>
			<rect x="263.196" y="335.118" style="fill:none;stroke:#000000;stroke-miterlimit:10;" width="8.521" height="9.122"/>
			<rect x="225.702" y="349.581" style="fill:none;stroke:#000000;stroke-miterlimit:10;" width="8.521" height="9.122"/>
			<rect x="238.2" y="349.581" style="fill:none;stroke:#000000;stroke-miterlimit:10;" width="8.521" height="9.122"/>
			<rect x="250.698" y="349.581" style="fill:none;stroke:#000000;stroke-miterlimit:10;" width="8.521" height="9.122"/>
			<rect x="263.196" y="349.581" style="fill:none;stroke:#000000;stroke-miterlimit:10;" width="8.521" height="9.122"/>
			<rect x="225.702" y="364.043" style="fill:none;stroke:#000000;stroke-miterlimit:10;" width="8.521" height="9.122"/>
			<rect x="238.2" y="364.043" style="fill:none;stroke:#000000;stroke-miterlimit:10;" width="8.521" height="9.122"/>
			<rect x="250.698" y="364.043" style="fill:none;stroke:#000000;stroke-miterlimit:10;" width="8.521" height="9.122"/>
			<rect x="263.196" y="364.043" style="fill:none;stroke:#000000;stroke-miterlimit:10;" width="8.521" height="9.122"/>
			<rect x="225.702" y="378.505" style="fill:none;stroke:#000000;stroke-miterlimit:10;" width="8.521" height="9.122"/>
			<rect x="238.2" y="378.505" style="fill:none;stroke:#000000;stroke-miterlimit:10;" width="8.521" height="9.122"/>
			<rect x="250.698" y="378.505" style="fill:none;stroke:#000000;stroke-miterlimit:10;" width="8.521" height="9.122"/>
			<rect x="263.196" y="378.505" style="fill:none;stroke:#000000;stroke-miterlimit:10;" width="8.521" height="9.122"/>
			<rect x="225.702" y="392.967" style="fill:none;stroke:#000000;stroke-miterlimit:10;" width="8.521" height="9.122"/>
			<rect x="238.2" y="392.967" style="fill:none;stroke:#000000;stroke-miterlimit:10;" width="8.521" height="9.122"/>
			<rect x="250.698" y="392.967" style="fill:none;stroke:#000000;stroke-miterlimit:10;" width="8.521" height="9.122"/>
			<rect x="263.196" y="392.967" style="fill:none;stroke:#000000;stroke-miterlimit:10;" width="8.521" height="9.122"/>
		</g>
		<g>
			<rect x="274.517" y="320.656" style="fill:none;stroke:#000000;stroke-miterlimit:10;" width="8.521" height="9.122"/>
			<rect x="287.015" y="320.656" style="fill:none;stroke:#000000;stroke-miterlimit:10;" width="8.521" height="9.122"/>
			<rect x="299.513" y="320.656" style="fill:none;stroke:#000000;stroke-miterlimit:10;" width="8.522" height="9.122"/>
			<rect x="312.011" y="320.656" style="fill:none;stroke:#000000;stroke-miterlimit:10;" width="8.521" height="9.122"/>
			<rect x="274.517" y="335.118" style="fill:none;stroke:#000000;stroke-miterlimit:10;" width="8.521" height="9.122"/>
			<rect x="287.015" y="335.118" style="fill:none;stroke:#000000;stroke-miterlimit:10;" width="8.521" height="9.122"/>
			<rect x="299.513" y="335.118" style="fill:none;stroke:#000000;stroke-miterlimit:10;" width="8.522" height="9.122"/>
			<rect x="312.011" y="335.118" style="fill:none;stroke:#000000;stroke-miterlimit:10;" width="8.521" height="9.122"/>
			<rect x="274.517" y="349.581" style="fill:none;stroke:#000000;stroke-miterlimit:10;" width="8.521" height="9.122"/>
			<rect x="287.015" y="349.581" style="fill:none;stroke:#000000;stroke-miterlimit:10;" width="8.521" height="9.122"/>
			<rect x="299.513" y="349.581" style="fill:none;stroke:#000000;stroke-miterlimit:10;" width="8.522" height="9.122"/>
			<rect x="312.011" y="349.581" style="fill:none;stroke:#000000;stroke-miterlimit:10;" width="8.521" height="9.122"/>
			<rect x="274.517" y="364.043" style="fill:none;stroke:#000000;stroke-miterlimit:10;" width="8.521" height="9.122"/>
			<rect x="287.015" y="364.043" style="fill:none;stroke:#000000;stroke-miterlimit:10;" width="8.521" height="9.122"/>
			<rect x="299.513" y="364.043" style="fill:none;stroke:#000000;stroke-miterlimit:10;" width="8.522" height="9.122"/>
			<rect x="312.011" y="364.043" style="fill:none;stroke:#000000;stroke-miterlimit:10;" width="8.521" height="9.122"/>
			<rect x="274.517" y="378.505" style="fill:none;stroke:#000000;stroke-miterlimit:10;" width="8.521" height="9.122"/>
			<rect x="287.015" y="378.505" style="fill:none;stroke:#000000;stroke-miterlimit:10;" width="8.521" height="9.122"/>
			<rect x="299.513" y="378.505" style="fill:none;stroke:#000000;stroke-miterlimit:10;" width="8.522" height="9.122"/>
			<rect x="312.011" y="378.505" style="fill:none;stroke:#000000;stroke-miterlimit:10;" width="8.521" height="9.122"/>
			<rect x="274.517" y="392.967" style="fill:none;stroke:#000000;stroke-miterlimit:10;" width="8.521" height="9.122"/>
			<rect x="287.015" y="392.967" style="fill:none;stroke:#000000;stroke-miterlimit:10;" width="8.521" height="9.122"/>
			<rect x="299.513" y="392.967" style="fill:none;stroke:#000000;stroke-miterlimit:10;" width="8.522" height="9.122"/>
			<rect x="312.011" y="392.967" style="fill:none;stroke:#000000;stroke-miterlimit:10;" width="8.521" height="9.122"/>
		</g>
		<g>
			<rect x="176.199" y="320.656" style="fill:none;stroke:#000000;stroke-miterlimit:10;" width="8.521" height="9.122"/>
			<rect x="188.697" y="320.656" style="fill:none;stroke:#000000;stroke-miterlimit:10;" width="8.521" height="9.122"/>
			<rect x="201.195" y="320.656" style="fill:none;stroke:#000000;stroke-miterlimit:10;" width="8.521" height="9.122"/>
			<rect x="213.694" y="320.656" style="fill:none;stroke:#000000;stroke-miterlimit:10;" width="8.521" height="9.122"/>
			<rect x="176.199" y="335.118" style="fill:none;stroke:#000000;stroke-miterlimit:10;" width="8.521" height="9.122"/>
			<rect x="188.697" y="335.118" style="fill:none;stroke:#000000;stroke-miterlimit:10;" width="8.521" height="9.122"/>
			<rect x="201.195" y="335.118" style="fill:none;stroke:#000000;stroke-miterlimit:10;" width="8.521" height="9.122"/>
			<rect x="213.694" y="335.118" style="fill:none;stroke:#000000;stroke-miterlimit:10;" width="8.521" height="9.122"/>
			<rect x="176.199" y="349.581" style="fill:none;stroke:#000000;stroke-miterlimit:10;" width="8.521" height="9.122"/>
			<rect x="188.697" y="349.581" style="fill:none;stroke:#000000;stroke-miterlimit:10;" width="8.521" height="9.122"/>
			<rect x="201.195" y="349.581" style="fill:none;stroke:#000000;stroke-miterlimit:10;" width="8.521" height="9.122"/>
			<rect x="213.694" y="349.581" style="fill:none;stroke:#000000;stroke-miterlimit:10;" width="8.521" height="9.122"/>
			<rect x="176.199" y="364.043" style="fill:none;stroke:#000000;stroke-miterlimit:10;" width="8.521" height="9.122"/>
			<rect x="188.697" y="364.043" style="fill:none;stroke:#000000;stroke-miterlimit:10;" width="8.521" height="9.122"/>
			<rect x="201.195" y="364.043" style="fill:none;stroke:#000000;stroke-miterlimit:10;" width="8.521" height="9.122"/>
			<rect x="213.694" y="364.043" style="fill:none;stroke:#000000;stroke-miterlimit:10;" width="8.521" height="9.122"/>
			<rect x="176.199" y="378.505" style="fill:none;stroke:#000000;stroke-miterlimit:10;" width="8.521" height="9.122"/>
			<rect x="188.697" y="378.505" style="fill:none;stroke:#000000;stroke-miterlimit:10;" width="8.521" height="9.122"/>
			<rect x="201.195" y="378.505" style="fill:none;stroke:#000000;stroke-miterlimit:10;" width="8.521" height="9.122"/>
			<rect x="213.694" y="378.505" style="fill:none;stroke:#000000;stroke-miterlimit:10;" width="8.521" height="9.122"/>
			<rect x="176.199" y="392.967" style="fill:none;stroke:#000000;stroke-miterlimit:10;" width="8.521" height="9.122"/>
			<rect x="188.697" y="392.967" style="fill:none;stroke:#000000;stroke-miterlimit:10;" width="8.521" height="9.122"/>
			<rect x="201.195" y="392.967" style="fill:none;stroke:#000000;stroke-miterlimit:10;" width="8.521" height="9.122"/>
			<rect x="213.694" y="392.967" style="fill:none;stroke:#000000;stroke-miterlimit:10;" width="8.521" height="9.122"/>
		</g>
		<g>
			<rect x="455.386" y="292.308" style="fill:none;stroke:#000000;stroke-miterlimit:10;" width="8.522" height="9.122"/>
			<rect x="467.885" y="292.308" style="fill:none;stroke:#000000;stroke-miterlimit:10;" width="8.521" height="9.122"/>
			<rect x="455.386" y="306.77" style="fill:none;stroke:#000000;stroke-miterlimit:10;" width="8.522" height="9.122"/>
			<rect x="467.885" y="306.77" style="fill:none;stroke:#000000;stroke-miterlimit:10;" width="8.521" height="9.122"/>
			<rect x="455.386" y="321.233" style="fill:none;stroke:#000000;stroke-miterlimit:10;" width="8.522" height="9.122"/>
			<rect x="467.885" y="321.233" style="fill:none;stroke:#000000;stroke-miterlimit:10;" width="8.521" height="9.122"/>
			<rect x="455.386" y="335.695" style="fill:none;stroke:#000000;stroke-miterlimit:10;" width="8.522" height="9.122"/>
			<rect x="467.885" y="335.695" style="fill:none;stroke:#000000;stroke-miterlimit:10;" width="8.521" height="9.122"/>
			<rect x="455.386" y="350.157" style="fill:none;stroke:#000000;stroke-miterlimit:10;" width="8.522" height="9.122"/>
			<rect x="467.885" y="350.157" style="fill:none;stroke:#000000;stroke-miterlimit:10;" width="8.521" height="9.122"/>
			<rect x="455.386" y="364.619" style="fill:none;stroke:#000000;stroke-miterlimit:10;" width="8.522" height="9.122"/>
			<rect x="467.885" y="364.619" style="fill:none;stroke:#000000;stroke-miterlimit:10;" width="8.521" height="9.122"/>
			<rect x="455.386" y="379.081" style="fill:none;stroke:#000000;stroke-miterlimit:10;" width="8.522" height="9.122"/>
			<rect x="467.885" y="379.081" style="fill:none;stroke:#000000;stroke-miterlimit:10;" width="8.521" height="9.122"/>
			<rect x="455.386" y="393.543" style="fill:none;stroke:#000000;stroke-miterlimit:10;" width="8.522" height="9.122"/>
			<rect x="467.885" y="393.543" style="fill:none;stroke:#000000;stroke-miterlimit:10;" width="8.521" height="9.122"/>
		</g>
		<g>
			<line style="fill:none;stroke:#000000;stroke-miterlimit:10;" x1="360.068" y1="175.953" x2="360.068" y2="408.937"/>
			<line style="fill:none;stroke:#000000;stroke-miterlimit:10;" x1="368.519" y1="357.335" x2="368.519" y2="408.937"/>
			<line style="fill:none;stroke:#000000;stroke-miterlimit:10;" x1="368.519" y1="247.517" x2="368.519" y2="351.844"/>
			<line style="fill:none;stroke:#000000;stroke-miterlimit:10;" x1="368.519" y1="175.953" x2="368.519" y2="240.928"/>
			<line style="fill:none;stroke:#000000;stroke-miterlimit:10;" x1="376.971" y1="175.953" x2="376.971" y2="408.937"/>
			<line style="fill:none;stroke:#000000;stroke-miterlimit:10;" x1="385.423" y1="231.044" x2="385.423" y2="408.937"/>
			<line style="fill:none;stroke:#000000;stroke-miterlimit:10;" x1="385.423" y1="175.953" x2="385.423" y2="224.455"/>
			<line style="fill:none;stroke:#000000;stroke-miterlimit:10;" x1="393.875" y1="175.953" x2="393.875" y2="408.937"/>
			<line style="fill:none;stroke:#000000;stroke-miterlimit:10;" x1="402.327" y1="288.15" x2="402.327" y2="408.937"/>
			<line style="fill:none;stroke:#000000;stroke-miterlimit:10;" x1="402.327" y1="175.953" x2="402.327" y2="279.913"/>
			<line style="fill:none;stroke:#000000;stroke-miterlimit:10;" x1="410.779" y1="175.953" x2="410.779" y2="408.937"/>
			<line style="fill:none;stroke:#000000;stroke-miterlimit:10;" x1="419.231" y1="175.953" x2="419.231" y2="408.937"/>
		</g>
		<line style="fill:none;stroke:#000000;stroke-miterlimit:10;" x1="29.281" y1="150.731" x2="137.784" y2="150.731"/>
		<line style="fill:none;stroke:#000000;stroke-miterlimit:10;" x1="38.079" y1="316.153" x2="38.079" y2="426.875"/>
		<line style="fill:none;stroke:#000000;stroke-miterlimit:10;" x1="38.079" y1="156.596" x2="38.079" y2="307.917"/>
		<line style="fill:none;stroke:#000000;stroke-miterlimit:10;" x1="42.966" y1="228.848" x2="42.966" y2="426.875"/>
		<line style="fill:none;stroke:#000000;stroke-miterlimit:10;" x1="42.966" y1="156.596" x2="42.966" y2="222.259"/>
		<line style="fill:none;stroke:#000000;stroke-miterlimit:10;" x1="57.629" y1="156.596" x2="57.629" y2="426.875"/>
		<line style="fill:none;stroke:#000000;stroke-miterlimit:10;" x1="62.516" y1="156.596" x2="62.516" y2="426.875"/>
		<line style="fill:none;stroke:#000000;stroke-miterlimit:10;" x1="77.179" y1="156.596" x2="77.179" y2="426.875"/>
		<line style="fill:none;stroke:#000000;stroke-miterlimit:10;" x1="82.066" y1="197.55" x2="82.066" y2="426.875"/>
		<line style="fill:none;stroke:#000000;stroke-miterlimit:10;" x1="82.066" y1="156.596" x2="82.066" y2="189.314"/>
		<line style="fill:none;stroke:#000000;stroke-miterlimit:10;" x1="96.729" y1="156.596" x2="96.729" y2="426.875"/>
		<line style="fill:none;stroke:#000000;stroke-miterlimit:10;" x1="101.616" y1="414.989" x2="101.616" y2="426.875"/>
		<line style="fill:none;stroke:#000000;stroke-miterlimit:10;" x1="101.616" y1="156.596" x2="101.616" y2="406.204"/>
		<line style="fill:none;stroke:#000000;stroke-miterlimit:10;" x1="116.279" y1="156.596" x2="116.279" y2="426.875"/>
		<line style="fill:none;stroke:#000000;stroke-miterlimit:10;" x1="121.166" y1="156.596" x2="121.166" y2="426.875"/>
	</g>
</g>
<g id="Trees">
	<g>
		<g>
			<path style="fill:#92E3A9;" d="M80.409,375.273c0,17.042-11.713,23.612-26.161,23.612s-26.161-6.57-26.161-23.612
				c0-17.042,11.713-55.273,26.161-55.273S80.409,358.232,80.409,375.273z"/>
			<path style="opacity:0.6;fill:#FFFFFF;" d="M80.409,375.273c0,17.042-11.713,23.612-26.161,23.612s-26.161-6.57-26.161-23.612
				c0-17.042,11.713-55.273,26.161-55.273S80.409,358.232,80.409,375.273z"/>
		</g>
		<polygon style="fill:#B2B2B2;" points="43.71,379.314 51.547,382.904 50.058,464.894 55.7,464.894 54.651,389.684 64.929,384.1 
			70.157,386.693 66.515,383.502 71.836,379.713 58.378,385.895 60.306,381.907 56.39,386.294 54.798,386.493 54.532,382.505 
			69.391,364.556 62.125,371.337 62.969,362.163 66.985,351.793 62.544,360.568 62.375,350.397 60.735,371.736 57.614,375.924 
			57.125,370.539 55.44,377.12 54.09,379.912 54.926,358.174 59.57,349.599 54.667,354.585 53.701,344.414 52.808,362.761 
			42.821,349.798 52.24,364.556 52.16,371.736 45.319,368.146 45.822,362.363 44.11,367.348 37.266,363.559 52,374.129 
			51.707,380.511 33.656,374.328 42.304,378.716 32.791,382.305 		"/>
	</g>
	<g>
		<g>
			<path style="fill:#92E3A9;" d="M213.129,413.273c0,17.042-11.713,23.612-26.161,23.612c-14.448,0-26.161-6.57-26.161-23.612
				c0-17.042,11.713-55.273,26.161-55.273C201.416,358,213.129,396.232,213.129,413.273z"/>
			<path style="opacity:0.6;fill:#FFFFFF;" d="M213.129,413.273c0,17.042-11.713,23.612-26.161,23.612
				c-14.448,0-26.161-6.57-26.161-23.612c0-17.042,11.713-55.273,26.161-55.273C201.416,358,213.129,396.232,213.129,413.273z"/>
		</g>
		<polygon style="fill:#B2B2B2;" points="176.43,417.314 184.268,420.904 183.477,464.436 187.884,464.436 187.372,427.684 
			197.649,422.1 202.878,424.693 199.235,421.502 204.557,417.713 191.098,423.895 193.026,419.907 189.11,424.294 187.518,424.493 
			187.253,420.505 202.111,402.556 194.845,409.337 195.69,400.163 199.706,389.793 195.265,398.568 195.096,388.397 
			193.456,409.736 190.334,413.924 189.846,408.539 188.16,415.12 186.811,417.912 187.646,396.174 192.29,387.599 187.388,392.585 
			186.421,382.414 185.529,400.761 175.542,387.798 184.96,402.556 184.88,409.736 178.04,406.146 178.542,400.362 176.83,405.348 
			169.987,401.559 184.72,412.129 184.427,418.511 166.376,412.328 175.024,416.716 165.511,420.305 		"/>
	</g>
	<g>
		<g>
			<path style="fill:#92E3A9;" d="M436.408,375.273c0,17.042-11.713,23.612-26.161,23.612s-26.161-6.57-26.161-23.612
				c0-17.042,11.713-55.273,26.161-55.273S436.408,358.232,436.408,375.273z"/>
			<path style="opacity:0.6;fill:#FFFFFF;" d="M436.408,375.273c0,17.042-11.713,23.612-26.161,23.612s-26.161-6.57-26.161-23.612
				c0-17.042,11.713-55.273,26.161-55.273S436.408,358.232,436.408,375.273z"/>
		</g>
		<polygon style="fill:#B2B2B2;" points="399.71,379.314 407.547,382.904 406.058,464.894 411.7,464.894 410.651,389.684 
			420.929,384.1 426.157,386.693 422.514,383.502 427.836,379.713 414.378,385.895 416.306,381.907 412.39,386.294 410.798,386.493 
			410.532,382.505 425.391,364.556 418.124,371.337 418.969,362.163 422.985,351.793 418.544,360.568 418.375,350.397 
			416.735,371.736 413.614,375.924 413.125,370.539 411.44,377.12 410.09,379.912 410.926,358.174 415.57,349.599 410.667,354.585 
			409.701,344.414 408.808,362.761 398.821,349.798 408.24,364.556 408.16,371.736 401.319,368.146 401.822,362.363 400.11,367.348 
			393.266,363.559 408,374.129 407.707,380.511 389.656,374.328 398.304,378.716 388.791,382.305 		"/>
	</g>
</g>
<g id="Clouds">
	<g style="opacity:0.3;">
		<g>
			<path style="fill:none;stroke:#000000;stroke-miterlimit:10;" d="M457.413,96.493c-3.621-1.975-5.267-0.329-6.583-1.975
				c-1.317-1.646,3.621-5.925-6.254-10.204c0,0-0.658-9.216-14.154-9.545c-13.496-0.329-9.875,9.217-13.496,11.521
				c-3.621,2.304-4.608-1.317-8.229,0.987c-3.621,2.304-1.975,6.913-4.937,7.571c-2.963,0.658-6.913-2.962-10.533-0.658
				c-3.621,2.304-3.621,4.279-5.267,4.279c-1.646,0-4.938-1.317-6.913,0c-1.975,1.317-4.279,2.962-4.279,2.962h83.278
				C460.046,101.43,461.033,98.468,457.413,96.493z"/>
		</g>
		<g>
			<path style="fill:none;stroke:#000000;stroke-miterlimit:10;" d="M106.109,94.537c-2.6-1.418-3.782-0.236-4.727-1.418
				c-0.945-1.182,2.6-4.254-4.491-7.327c0,0-0.473-6.617-10.163-6.854c-9.69-0.236-7.09,6.618-9.69,8.272
				c-2.6,1.654-3.309-0.945-5.909,0.709c-2.6,1.654-1.418,4.963-3.545,5.436c-2.127,0.473-4.963-2.127-7.563-0.473
				c-2.6,1.654-2.6,3.072-3.782,3.072s-3.545-0.945-4.963,0c-1.418,0.946-3.072,2.127-3.072,2.127H108
				C108,98.082,108.709,95.955,106.109,94.537z"/>
		</g>
		<g>
			<path style="fill:none;stroke:#000000;stroke-miterlimit:10;" d="M407.423,82.88c-2.26-1.233-3.287-0.205-4.109-1.233
				c-0.822-1.027,2.26-3.698-3.904-6.369c0,0-0.411-5.752-8.834-5.958c-8.423-0.205-6.163,5.753-8.423,7.191
				c-2.26,1.438-2.876-0.822-5.136,0.616c-2.26,1.438-1.233,4.315-3.082,4.725c-1.849,0.411-4.315-1.849-6.574-0.411
				c-2.26,1.438-2.26,2.671-3.287,2.671c-1.027,0-3.082-0.822-4.314,0c-1.233,0.822-2.671,1.849-2.671,1.849h51.978
				C409.067,85.962,409.683,84.113,407.423,82.88z"/>
		</g>
	</g>
</g>
<g id="Device">
	<g>
		<g>
			<path style="fill:#707070;stroke:#263238;stroke-linejoin:round;stroke-miterlimit:10;" d="M362.731,152.988v-36.502h-3.302
				V69.755c0-15.909-12.897-28.805-28.805-28.805H175.898c-15.909,0-28.805,12.897-28.805,28.805v314.389
				c0,15.909,12.897,28.805,28.805,28.805h154.726c15.909,0,28.805-12.897,28.805-28.805V184.098h3.302v-21.569h-3.302v-9.54
				H362.731z"/>
			<path style="fill:#263238;stroke:#263238;stroke-linejoin:round;stroke-miterlimit:10;" d="M325.577,408.982H180.944
				c-16.854,0-30.517-13.663-30.517-30.517V75.435c0-16.854,13.663-30.517,30.517-30.517h144.632
				c16.854,0,30.517,13.663,30.517,30.517v303.03C356.094,395.319,342.431,408.982,325.577,408.982z"/>
			<path style="fill:#92E3A9;stroke:#263238;stroke-linecap:round;stroke-linejoin:round;stroke-miterlimit:10;" d="M321.57,47.534
				h-57.119l-0.057,0.207c-1.69,6.088-5.583,10.038-9.893,10.038h-2.479c-4.31,0-8.203-3.951-9.893-10.038l-0.057-0.207h-57.119
				c-15.909,0-28.805,12.897-28.805,28.805v287.23c0,15.909,12.897,28.805,28.805,28.805h136.62
				c15.909,0,28.805-12.897,28.805-28.805V76.339C350.376,60.43,337.479,47.534,321.57,47.534z"/>
			<path style="opacity:0.5;fill:#FFFFFF;stroke:#263238;stroke-linecap:round;stroke-linejoin:round;stroke-miterlimit:10;" d="
				M321.57,47.534h-57.119l-0.057,0.207c-1.69,6.088-5.583,10.038-9.893,10.038h-2.479c-4.31,0-8.203-3.951-9.893-10.038
				l-0.057-0.207h-57.119c-15.909,0-28.805,12.897-28.805,28.805v287.23c0,15.909,12.897,28.805,28.805,28.805h136.62
				c15.909,0,28.805-12.897,28.805-28.805V76.339C350.376,60.43,337.479,47.534,321.57,47.534z"/>
			<g>
				<polygon style="fill:#92E3A9;" points="178.981,128.21 163.659,107.051 161.47,152.288 174.604,157.395 				"/>
				<polygon style="fill:#92E3A9;" points="214.003,168.339 183.359,131.858 179.635,162.224 213.424,179.646 				"/>
				<path style="fill:#92E3A9;" d="M350.376,120.77V76.339c0-12.367-7.795-22.911-18.739-26.994l-34.753,40.138
					c-3.858,4.456-3.352,11.2,1.128,15.03l29.59,25.295c4.237,3.622,10.553,3.354,14.467-0.615L350.376,120.77z"/>
				<polygon style="fill:#92E3A9;" points="212.082,205.807 176.152,190.626 173.874,209.199 211.085,225.251 				"/>
				<polygon style="fill:#92E3A9;" points="176.953,184.09 212.365,200.278 213.134,185.295 178.995,167.438 				"/>
				<polygon style="fill:#92E3A9;" points="241.729,301.861 314.692,300.402 289.885,268.299 				"/>
			</g>
			<g>
				<path style="fill:#FFFFFF;" d="M303.467,246.045c0,12.023,9.781,21.805,21.804,21.805c12.023,0,21.805-9.781,21.805-21.805
					c0-12.023-9.782-21.805-21.805-21.805C313.248,224.24,303.467,234.022,303.467,246.045z M345.056,246.045
					c0,10.908-8.875,19.784-19.784,19.784c-10.909,0-19.784-8.875-19.784-19.784c0-10.909,8.875-19.784,19.784-19.784
					C336.18,226.261,345.056,235.136,345.056,246.045z"/>
				<path style="fill:#FFFFFF;" d="M350.376,193.332l-52.718,30.237l-28.717-28.717l22.468-1.427l-0.001-0.01
					c0.219-0.014,0.436-0.09,0.611-0.247l58.356-52.371v-2.715l-19.008,17.058l-61.108-49.468l47.218-58.139h-2.603l-67.297,82.861
					L172.4,50.406c-0.63,0.305-1.243,0.638-1.846,0.987l75.738,80.585l-5.919,7.288l-33.393-33.94
					c-5.848-5.943-15.4-6.363-21.745-0.957l-9.004,7.67L156.145,88.23v3.134l62.766,74.397c-0.044,0.104-0.073,0.213-0.08,0.327
					l-4.342,70.194l-20.002,6.047l-0.01-0.02c-0.081-0.161-0.203-0.298-0.355-0.396l-37.978-24.593v2.407l35.998,23.311
					l-35.998,10.883v2.111l37.297-11.276l11.827,23.655l-49.124,22.711v2.225l50.027-23.129l16.23,32.46l-66.257,51.255v2.555
					l135.344-104.7l58.886,69.798v-3.134l-69.814-82.751l69.814-40.041V193.332z M329.845,156.508l-17.344,15.565l-25.553-23.48
					l14.436-15.123L329.845,156.508z M268.986,107.241l30.823,24.952l-15.033,15.749c-0.187,0.196-0.287,0.459-0.278,0.731
					c0.009,0.271,0.126,0.527,0.326,0.711l26.167,24.045l-19.603,17.593l-49.587-50.306L268.986,107.241z M240.518,142.294
					l48.553,49.255l-43.431,2.758l-24.133-28.604L240.518,142.294z M177.535,113.583l9.011-7.676
					c5.542-4.722,13.886-4.355,18.994,0.836l33.551,34.102L220.18,164.13L177.535,113.583z M220.743,167.931l44.676,52.954
					l-48.865,14.773L220.743,167.931z M266.823,222.55l10.563,12.52L230.602,256.7l-13.44-19.114l49.667-15.016L266.823,222.55z
					 M195.405,244.163l19.72-5.962l13.613,19.36l-21.633,10.001L195.405,244.163z M224.031,301.417l-16.024-32.048l21.91-10.13
					l17.135,24.369L224.031,301.417z M290.185,250.242l-41.533,32.13l-16.87-23.993l46.953-21.708L290.185,250.242z
					 M279.239,234.134l-31.979-37.905l19.629-1.246l-0.338,0.338l29.29,29.29L279.239,234.134z"/>
				<path style="fill:#FFFFFF;" d="M316.6,246.045c0,4.781,3.89,8.672,8.671,8.672c4.782,0,8.672-3.891,8.672-8.672
					c0-4.781-3.891-8.671-8.672-8.671C320.49,237.374,316.6,241.264,316.6,246.045z M331.923,246.045
					c0,3.667-2.984,6.651-6.651,6.651c-3.667,0-6.65-2.984-6.65-6.651s2.984-6.651,6.65-6.651
					C328.939,239.394,331.923,242.378,331.923,246.045z"/>
			</g>
			<path style="fill:#FFFFFF;stroke:#263238;stroke-linejoin:round;stroke-miterlimit:10;" d="M156.145,293.106v70.463
				c0,15.909,12.897,28.805,28.805,28.805h136.62c15.909,0,28.805-12.897,28.805-28.805v-70.463H156.145z"/>
			<g>
				<path style="fill:#263238;" d="M343.857,315.05c-0.018-0.091-0.033-0.171-0.045-0.242c-0.08-0.444-0.107-0.594-0.621-1.222
					c-0.471-0.576-0.635-0.977-0.672-1.082c0.005-0.025,0.014-0.065,0.024-0.113c0.004-0.018,0.008-0.039,0.013-0.06
					c0.004-0.017,0.007-0.034,0.011-0.053c0.005-0.023,0.01-0.048,0.015-0.072c0.003-0.014,0.005-0.026,0.008-0.041
					c0.006-0.027,0.011-0.057,0.017-0.086c0.003-0.014,0.005-0.027,0.008-0.042c0.006-0.029,0.012-0.059,0.018-0.09
					c0.003-0.017,0.007-0.033,0.01-0.05c0.006-0.03,0.012-0.061,0.018-0.092c0.004-0.019,0.007-0.038,0.011-0.057
					c0.005-0.029,0.011-0.058,0.016-0.088c0.004-0.023,0.008-0.046,0.013-0.069c0.005-0.027,0.01-0.055,0.015-0.082
					c0.005-0.026,0.009-0.052,0.014-0.077c0.005-0.026,0.009-0.051,0.013-0.076c0.005-0.026,0.009-0.052,0.013-0.078
					c0.004-0.025,0.008-0.049,0.012-0.074c0.004-0.027,0.008-0.053,0.012-0.079c0.003-0.022,0.007-0.045,0.01-0.067
					c0.004-0.027,0.007-0.053,0.011-0.079c0.003-0.02,0.005-0.04,0.008-0.059c0.003-0.026,0.006-0.051,0.009-0.076
					c0.002-0.017,0.004-0.034,0.006-0.05c0.003-0.026,0.005-0.05,0.006-0.074c0.001-0.012,0.002-0.026,0.003-0.038
					c0.002-0.034,0.003-0.066,0.003-0.093c0-0.149-0.041-0.263-0.121-0.34c-0.088-0.083-0.205-0.105-0.325-0.109
					c-0.11-0.017-0.219-0.014-0.296-0.007c-0.078-0.217-0.298-0.717-0.736-0.936c-0.154-0.077-0.302-0.143-0.467-0.215
					c-0.381-0.169-0.855-0.378-1.705-0.87c-0.491-0.284-1.229-0.751-2.01-1.246c-1.143-0.724-2.325-1.472-2.828-1.705
					c-0.139-0.064-0.286-0.158-0.473-0.278c-0.856-0.548-2.449-1.569-7.11-1.849c-3.97-0.239-9.879-0.263-9.935-0.263
					c-0.022-0.001-2.21-0.062-4.244,0.129c-0.228,0.021-0.451,0.035-0.685,0.05c-0.887,0.055-1.991,0.124-4.183,0.672
					c-1.583,0.396-10.144,4.125-10.491,4.278c-0.331,0.092-8.115,2.271-8.997,2.933c-0.365,0.274-0.608,0.64-0.769,0.983
					c-0.247,0.387-0.291,0.791-0.298,0.946c-0.267,0.201-1.095,0.867-1.019,1.321c0.07,0.42,0.071,0.705,0.071,0.708v5.773
					c0,0.068,0.055,0.124,0.124,0.124h0.903c0.022,0,0.043-0.005,0.061-0.016l0.59-0.337h1.318c0.536,1.76,1.819,3.003,3.315,3.003
					h2.711c1.454,0,2.706-1.175,3.267-2.857l0.443,0.197c0.016,0.007,0.033,0.011,0.05,0.011h5.775
					c0.593,1.57,1.8,2.649,3.193,2.649h2.711c1.545,0,2.861-1.328,3.363-3.18h0.827h6.195c0.481,1.849,1.785,3.18,3.318,3.18h1.966
					c0.01,0,0.019-0.001,0.028-0.004c0.037,0.002,0.075,0.004,0.112,0.004c1.241,0,2.297-1.331,2.685-3.18h3.087
					c0.481,1.849,1.785,3.18,3.318,3.18h1.966c0.015,0,0.028-0.004,0.041-0.008c0.033,0.002,0.066,0.008,0.099,0.008
					c1.241,0,2.297-1.331,2.685-3.18h0.733h2.034c0.022,0,0.044-0.006,0.063-0.017c0.546-0.32,0.393-0.971,0.221-1.304
					C343.488,318.44,343.982,315.673,343.857,315.05z"/>
				<path style="fill:#FFFFFF;" d="M317.594,306.098c0,0-3.973,2.633-3.909,2.826c0.064,0.192,2.307,0.513,2.883,0.513
					c0.577,0,17.94,0,17.94,0s2.179-0.449,2.499-0.833c0.32-0.384-4.485-3.396-6.215-3.973c-1.73-0.577-5.103-0.536-8.522-0.263
					C319.717,304.572,317.594,306.098,317.594,306.098z"/>
				<path style="fill:#FFFFFF;" d="M297.36,308.155h12.225c0,0,1.794,0.128,3.268-0.833c1.474-0.961,2.371-1.288,3.716-2.121
					c1.346-0.833,1.858-1.089,1.858-1.089s-4.549-0.384-7.176-0.384c-2.627,0-3.78,0.32-3.78,0.32L297.36,308.155z"/>
			</g>
			<g>
				<path style="fill:#263238;" d="M204.024,307.954c0,4.701-5.28,6.394-5.302,9.98v0.245h5.124v1.582h-6.839v-1.337
					c0-5.034,5.28-6.015,5.28-10.404c0-1.603-0.534-2.45-1.827-2.45c-1.269,0-1.826,0.913-1.826,2.294v1.381h-1.627v-1.27
					c0-2.384,1.092-3.966,3.498-3.966C202.932,304.01,204.024,305.57,204.024,307.954z"/>
				<path style="fill:#263238;" d="M214.831,319.739h-1.671l-2.584-12.409v12.431h-1.515v-15.595h2.428l2.562,12.453l2.473-12.453
					h2.428v15.595h-1.648v-12.542L214.831,319.739z"/>
				<path style="fill:#263238;" d="M222.474,304.166v15.595h-1.738v-15.595H222.474z"/>
				<path style="fill:#263238;" d="M225.793,319.761h-1.56v-15.595h2.206l3.609,11.273v-11.273h1.537v15.595h-1.805l-3.988-12.609
					V319.761z"/>
			</g>
			<g>
				<path style="fill:#FFFFFF;stroke:#263238;stroke-linejoin:round;stroke-miterlimit:10;" d="M188.084,312.081
					c0,5.638-4.567,10.215-10.215,10.215c-5.638,0-10.205-4.577-10.205-10.215c0-5.648,4.567-10.215,10.205-10.215
					c2.617,0,4.991,0.97,6.79,2.587C186.76,306.311,188.084,309.039,188.084,312.081z"/>
				<path style="fill:#263238;" d="M184.659,304.452l-6.79,7.629v-10.215C180.486,301.865,182.86,302.835,184.659,304.452z"/>
			</g>
			
				<line style="fill:none;stroke:#263238;stroke-linecap:round;stroke-linejoin:round;stroke-miterlimit:10;" x1="169.41" y1="335.586" x2="249.567" y2="335.586"/>
			
				<line style="fill:none;stroke:#263238;stroke-linecap:round;stroke-linejoin:round;stroke-miterlimit:10;" x1="169.41" y1="342.321" x2="249.567" y2="342.321"/>
			
				<line style="fill:none;stroke:#263238;stroke-linecap:round;stroke-linejoin:round;stroke-miterlimit:10;" x1="169.41" y1="349.057" x2="249.567" y2="349.057"/>
			<path style="fill:#FFFFFF;stroke:#263238;stroke-linejoin:round;stroke-miterlimit:10;" d="M321.57,47.534h-57.119l-0.057,0.207
				c-1.69,6.087-5.583,10.038-9.893,10.038h-2.479c-4.31,0-8.204-3.951-9.893-10.038l-0.057-0.207h-57.119
				c-15.909,0-28.805,12.897-28.805,28.805v5.175h194.23v-5.175C350.376,60.43,337.479,47.534,321.57,47.534z"/>
			<circle style="fill:#707070;" cx="252.667" cy="48.914" r="2.704"/>
		</g>
		<g>
			<g>
				<g>
					<path style="fill:#263238;" d="M173.406,59.277c0,2.736-3.073,3.721-3.086,5.809v0.143h2.982v0.921h-3.98v-0.778
						c0-2.93,3.073-3.5,3.073-6.055c0-0.933-0.312-1.426-1.063-1.426c-0.739,0-1.063,0.531-1.063,1.335v0.804h-0.946V59.29
						c0-1.388,0.635-2.308,2.035-2.308C172.771,56.982,173.406,57.89,173.406,59.277z"/>
					<path style="fill:#263238;" d="M178.373,59.264v0.233c0,0.934-0.375,1.595-1.102,1.867c0.764,0.285,1.102,0.972,1.102,1.88v0.7
						c0,1.387-0.648,2.295-2.049,2.295c-1.387,0-2.035-0.908-2.035-2.295v-0.623h0.946v0.687c0,0.817,0.337,1.31,1.063,1.31
						c0.739,0,1.063-0.48,1.063-1.4v-0.7c0-0.895-0.376-1.322-1.142-1.348h-0.544v-0.908h0.596c0.674-0.026,1.09-0.453,1.09-1.244
						v-0.415c0-0.933-0.325-1.413-1.063-1.413c-0.726,0-1.063,0.505-1.063,1.322v0.467h-0.946v-0.415
						c0-1.387,0.648-2.282,2.035-2.282C177.725,56.982,178.373,57.877,178.373,59.264z"/>
					<path style="fill:#263238;" d="M180.333,59.952v1.258h-0.973v-1.258H180.333z M180.333,64.891v1.258h-0.973v-1.258H180.333z"/>
					<path style="fill:#263238;" d="M182.382,60.769c0.285-0.493,0.739-0.752,1.349-0.752c1.167,0,1.685,0.856,1.685,2.152v1.777
						c0,1.387-0.661,2.295-2.048,2.295c-1.388,0-2.036-0.908-2.036-2.295v-0.609h0.946v0.674c0,0.817,0.337,1.31,1.064,1.31
						c0.726,0,1.063-0.493,1.063-1.31v-1.763c0-0.817-0.337-1.31-1.063-1.31c-0.557,0-0.934,0.311-1.024,0.973v0.208h-0.946
						l0.246-5.044h3.578v0.907h-2.671L182.382,60.769z"/>
					<path style="fill:#263238;" d="M190.461,59.251v0.169h-0.946v-0.233c0-0.817-0.337-1.296-1.076-1.296
						c-0.765,0-1.102,0.493-1.102,1.465v2.035c0.246-0.622,0.739-0.972,1.465-0.972c1.167,0,1.686,0.843,1.686,2.152v1.375
						c0,1.387-0.688,2.295-2.075,2.295c-1.4,0-2.088-0.908-2.088-2.295v-4.629c0-1.439,0.649-2.334,2.088-2.334
						C189.813,56.982,190.461,57.864,190.461,59.251z M187.336,62.649v1.361c0,0.817,0.337,1.31,1.076,1.31
						c0.726,0,1.076-0.493,1.076-1.31v-1.361c0-0.817-0.35-1.31-1.076-1.31C187.673,61.339,187.336,61.832,187.336,62.649z"/>
				</g>
				<g>
					<rect x="286.983" y="59.651" style="fill:#263238;" width="2.563" height="6.407"/>
					<rect x="290.4" y="58.367" style="fill:#263238;" width="2.563" height="7.69"/>
					<rect x="293.817" y="57.456" style="fill:#263238;" width="2.563" height="8.601"/>
					<rect x="297.234" y="55.871" style="fill:#263238;" width="2.563" height="10.186"/>
					<g>
						<g>
							<path style="fill:#263238;" d="M331.51,65.881h-15.376v-9.397h15.376V65.881z M316.988,65.027h13.668v-7.688h-13.668V65.027z
								"/>
						</g>
						<g>
							<rect x="318.27" y="58.269" style="fill:#263238;" width="8.115" height="5.829"/>
						</g>
						<g>
							<rect x="330.977" y="60.076" style="fill:#263238;" width="1.934" height="2.214"/>
						</g>
					</g>
					<g>
						<path style="fill:#263238;" d="M310.496,63.837c-0.1,0-0.202-0.026-0.294-0.081c-3.129-1.86-5.197-0.134-5.284-0.061
							c-0.239,0.208-0.601,0.181-0.809-0.057c-0.207-0.239-0.185-0.598,0.053-0.806c0.111-0.098,2.756-2.363,6.627-0.063
							c0.272,0.161,0.362,0.515,0.2,0.787C310.882,63.737,310.691,63.837,310.496,63.837z"/>
					</g>
					<g>
						<path style="fill:#263238;" d="M311.654,61.907c-0.1,0-0.202-0.026-0.294-0.081c-4.525-2.691-7.565-0.087-7.596-0.063
							c-0.238,0.211-0.6,0.186-0.81-0.052c-0.21-0.238-0.187-0.601,0.051-0.81c0.037-0.034,3.705-3.175,8.942-0.063
							c0.273,0.161,0.362,0.515,0.2,0.787C312.039,61.807,311.849,61.907,311.654,61.907z"/>
					</g>
					<g>
						<path style="fill:#263238;" d="M312.705,59.672c-0.1,0-0.202-0.026-0.294-0.081c-5.73-3.407-9.54-0.2-9.699-0.061
							c-0.239,0.208-0.602,0.182-0.81-0.056c-0.209-0.238-0.185-0.599,0.053-0.808c0.045-0.04,4.571-3.912,11.044-0.063
							c0.272,0.161,0.362,0.515,0.2,0.787C313.09,59.572,312.9,59.672,312.705,59.672z"/>
					</g>
					<g>
						<circle style="fill:#263238;" cx="307.327" cy="64.8" r="1.441"/>
					</g>
				</g>
			</g>
		</g>
		<g>
			<path style="fill:#263238;" d="M298.623,100.269c-0.016-0.078-0.028-0.147-0.039-0.208c-0.069-0.382-0.092-0.51-0.534-1.05
				c-0.405-0.495-0.545-0.84-0.578-0.93c0.005-0.022,0.012-0.056,0.021-0.097c0.003-0.016,0.007-0.033,0.011-0.052
				c0.003-0.015,0.006-0.029,0.009-0.045c0.004-0.019,0.008-0.041,0.013-0.062c0.002-0.012,0.005-0.023,0.007-0.035
				c0.005-0.023,0.01-0.049,0.015-0.074c0.002-0.012,0.005-0.023,0.007-0.036c0.005-0.025,0.01-0.051,0.015-0.077
				c0.003-0.014,0.006-0.028,0.009-0.043c0.005-0.026,0.01-0.052,0.015-0.079c0.003-0.016,0.006-0.032,0.009-0.049
				c0.005-0.025,0.009-0.05,0.014-0.076c0.004-0.02,0.007-0.039,0.011-0.059c0.004-0.023,0.009-0.047,0.013-0.071
				c0.004-0.022,0.008-0.044,0.012-0.066c0.004-0.022,0.008-0.044,0.011-0.065c0.004-0.023,0.008-0.045,0.011-0.068
				c0.004-0.021,0.007-0.042,0.01-0.063c0.004-0.023,0.007-0.046,0.01-0.068c0.003-0.019,0.006-0.038,0.009-0.057
				c0.003-0.023,0.006-0.046,0.009-0.068c0.002-0.017,0.005-0.034,0.007-0.051c0.003-0.023,0.005-0.044,0.008-0.065
				c0.002-0.015,0.004-0.03,0.005-0.043c0.002-0.022,0.004-0.043,0.005-0.063c0.001-0.011,0.002-0.022,0.003-0.033
				c0.002-0.029,0.003-0.056,0.003-0.08c0-0.128-0.035-0.227-0.104-0.292c-0.076-0.072-0.176-0.09-0.279-0.093
				c-0.095-0.014-0.188-0.012-0.254-0.006c-0.067-0.187-0.256-0.616-0.632-0.804c-0.132-0.066-0.26-0.122-0.401-0.185
				c-0.327-0.145-0.735-0.325-1.465-0.748c-0.422-0.244-1.056-0.646-1.727-1.071c-0.982-0.622-1.998-1.265-2.43-1.465
				c-0.12-0.055-0.246-0.136-0.406-0.239c-0.735-0.471-2.104-1.348-6.109-1.589c-3.412-0.205-8.489-0.226-8.537-0.226
				c-0.019-0.001-1.899-0.053-3.647,0.111c-0.196,0.018-0.387,0.03-0.588,0.043c-0.762,0.047-1.711,0.106-3.595,0.577
				c-1.36,0.34-8.716,3.544-9.015,3.676c-0.284,0.079-6.973,1.951-7.731,2.52c-0.314,0.236-0.523,0.55-0.661,0.845
				c-0.212,0.332-0.25,0.68-0.256,0.813c-0.23,0.173-0.941,0.745-0.876,1.135c0.06,0.361,0.061,0.606,0.061,0.608v4.961
				c0,0.059,0.048,0.106,0.106,0.106h0.776c0.019,0,0.037-0.005,0.053-0.014l0.507-0.29h1.133c0.461,1.512,1.563,2.58,2.849,2.58
				h2.329c1.249,0,2.325-1.01,2.807-2.455l0.381,0.169c0.014,0.006,0.028,0.009,0.043,0.009h4.962
				c0.509,1.349,1.546,2.276,2.743,2.276h2.329c1.327,0,2.458-1.141,2.89-2.732h0.711h5.323c0.413,1.588,1.534,2.732,2.851,2.732
				h1.689c0.008,0,0.016-0.001,0.024-0.003c0.032,0.002,0.064,0.003,0.096,0.003c1.067,0,1.974-1.144,2.307-2.732h2.652
				c0.414,1.588,1.534,2.732,2.851,2.732h1.689c0.013,0,0.024-0.003,0.036-0.007c0.029,0.002,0.056,0.007,0.085,0.007
				c1.067,0,1.974-1.144,2.307-2.732h0.629h1.747c0.019,0,0.038-0.005,0.054-0.015c0.469-0.275,0.338-0.834,0.19-1.12
				C298.306,103.182,298.73,100.804,298.623,100.269z"/>
			<path style="fill:#FFFFFF;" d="M276.056,92.577c0,0-3.414,2.263-3.358,2.428c0.055,0.165,1.982,0.44,2.478,0.44
				c0.495,0,15.416,0,15.416,0s1.872-0.385,2.147-0.716s-3.854-2.918-5.34-3.413c-1.486-0.495-4.384-0.461-7.322-0.226
				C277.88,91.266,276.056,92.577,276.056,92.577z"/>
			<path style="fill:#FFFFFF;" d="M258.669,94.344h10.505c0,0,1.542,0.11,2.808-0.716c1.266-0.826,2.037-1.107,3.193-1.822
				s1.597-0.936,1.597-0.936s-3.909-0.33-6.166-0.33c-2.257,0-3.248,0.275-3.248,0.275L258.669,94.344z"/>
		</g>
		<g>
			<path style="fill:#263238;" d="M203.469,232.878c-4.21-0.331-9.161,1.544-11.058,4.187c-1.897,2.643,1.576,9.021,1.576,9.021
				s11.771-5.181,13.669-7.824C209.553,235.619,207.679,233.208,203.469,232.878z M198.659,239.577
				c-1.684-0.132-2.434-1.096-1.675-2.154c0.759-1.057,2.739-1.807,4.423-1.675c1.684,0.132,2.434,1.096,1.675,2.154
				C202.324,238.96,200.343,239.709,198.659,239.577z"/>
			<path style="fill:#92E3A9;stroke:#263238;stroke-linecap:round;stroke-linejoin:round;stroke-miterlimit:10;" d="
				M193.987,218.257c-5.474,0-9.912,4.438-9.912,9.912c0,5.474,9.912,17.445,9.912,17.445s9.912-11.971,9.912-17.445
				C203.899,222.695,199.461,218.257,193.987,218.257z M193.987,232.134c-2.19,0-3.965-1.775-3.965-3.965
				c0-2.19,1.775-3.965,3.965-3.965c2.19,0,3.965,1.775,3.965,3.965C197.952,230.359,196.176,232.134,193.987,232.134z"/>
		</g>
		<g>
			<g>
				
					<line style="fill:none;stroke:#263238;stroke-width:2;stroke-linecap:round;stroke-linejoin:round;" x1="267.781" y1="107.388" x2="266.817" y2="108.538"/>
				
					<path style="fill:none;stroke:#263238;stroke-width:2;stroke-linecap:round;stroke-linejoin:round;stroke-dasharray:2.9862,2.9862;" d="
					M264.897,110.825l-42.461,50.615c-1.313,1.564-1.34,3.837-0.066,5.433l40.567,50.82c1.877,2.351,0.813,5.854-2.054,6.765
					l-59.349,18.856"/>
				
					<line style="fill:none;stroke:#263238;stroke-width:2;stroke-linecap:round;stroke-linejoin:round;" x1="200.111" y1="243.767" x2="198.681" y2="244.221"/>
			</g>
		</g>
		<g>
			<polygon style="fill:#263238;" points="252.262,151.021 252.262,162.108 230.033,159.104 252.262,169.901 252.262,179.312 
				306.823,179.312 306.823,151.021 			"/>
			<g>
				<path style="fill:#FFFFFF;" d="M258.028,161.194c0-2.384,1.181-3.921,3.565-3.921c2.405,0,3.587,1.537,3.587,3.921v8.043
					c0,2.384-1.181,3.943-3.587,3.943c-2.384,0-3.565-1.559-3.565-3.943V161.194z M259.744,169.348c0,1.403,0.602,2.25,1.849,2.25
					c1.27,0,1.849-0.847,1.849-2.25v-8.243c0-1.426-0.579-2.272-1.849-2.272c-1.247,0-1.849,0.847-1.849,2.272V169.348z"/>
				<path style="fill:#FFFFFF;" d="M268.5,170.863v2.161h-1.671v-2.161H268.5z"/>
				<path style="fill:#FFFFFF;" d="M276.611,169.882v3.142h-1.693v-3.142h-5.035V168.3l4.834-10.872h1.894V168.3h1.247v1.582
					H276.611z M271.487,168.3h3.431v-7.618L271.487,168.3z"/>
				<path style="fill:#FFFFFF;" d="M285.301,166.251l-0.914,1.537v5.236h-1.738v-15.595h1.738v7.531l4.143-7.531h1.76l-3.943,7.107
					l4.077,8.488h-1.783L285.301,166.251z"/>
				<path style="fill:#FFFFFF;" d="M297.51,173.001h-1.671l-2.584-12.409v12.432h-1.516v-15.595h2.428l2.563,12.453l2.473-12.453
					h2.428v15.595h-1.649v-12.542L297.51,173.001z"/>
			</g>
		</g>
	</g>
</g>
<g id="Character">
	<g>
		<g>
			<path style="fill:#FFFFFF;stroke:#263238;stroke-linecap:round;stroke-linejoin:round;stroke-miterlimit:10;" d="
				M140.898,448.276l1.955,5.539c0,0,5.865,2.281,6.842,3.91c0.978,1.629,0.978,7.168,0.978,7.168h-24.112
				c0,0-0.652-5.213-0.652-8.146s0-6.842,0-6.842L140.898,448.276z"/>
			<path style="fill:#FFFFFF;stroke:#263238;stroke-linecap:round;stroke-linejoin:round;stroke-miterlimit:10;" d="
				M126.272,462.287h24.304c0.096,1.428,0.097,2.607,0.097,2.607h-24.112C126.561,464.894,126.422,463.775,126.272,462.287z"/>
		</g>
		<path style="fill:#263238;stroke:#263238;stroke-linecap:round;stroke-linejoin:round;stroke-miterlimit:10;" d="M138.249,441.108
			l-1.629-132.289l-28.999,1.559l-28.999-1.559l-1.629,132.289c0,0-2.933,2.607-2.933,3.91c0,1.303,0,3.258,0,3.258l0.326,1.629
			c0,0,7.168,0.652,8.797,0.977c1.629,0.326,5.865-0.977,5.865-0.977s1.955-10.101,1.955-11.078
			c0-0.978,15.64-110.132,15.64-110.132l0.978-0.14l0.978,0.14c0,0,15.64,109.154,15.64,110.132c0,0.977,1.955,11.078,1.955,11.078
			s4.236,1.303,5.865,0.977c1.629-0.326,8.798-0.977,8.798-0.977l0.326-1.629c0,0,0-1.955,0-3.258
			C141.182,443.715,138.249,441.108,138.249,441.108z"/>
		<path style="fill:#263238;stroke:#263238;stroke-linecap:round;stroke-linejoin:round;stroke-miterlimit:10;" d="M149.303,234.036
			c0,0,9.261,4.274,12.348,6.412c3.087,2.137,2.375,10.211,3.324,14.723c0.95,4.512,2.137,7.361,0.95,8.549
			c-1.187,1.187-2.85,3.324-2.85,3.324s1.187,11.398,1.662,20.185c0.475,8.786-4.274,11.873-8.074,14.248
			c-3.799,2.375-8.074,2.85-15.91,2.375c-7.836-0.475-13.298-4.274-14.01-5.937c-0.712-1.662-7.361-19.947-4.512-30.395
			c2.85-10.449,12.348-32.77,16.86-35.145C143.604,229.999,149.303,234.036,149.303,234.036z"/>
		<g>
			<path style="fill:#FFFFFF;stroke:#263238;stroke-linecap:round;stroke-linejoin:round;stroke-miterlimit:10;" d="M77.589,297.677
				l-1.662,11.873c0,0,9.261,5.699,16.148,8.074c6.887,2.375,14.96,4.274,14.96,4.274l1.9-4.037l1.425,4.512
				c0,0,4.274-0.475,11.161-3.799s16.86-9.974,16.86-9.974l-0.237-12.111l-4.512-79.076l-18.047-7.836l-17.572,1.425l-13.298,7.361
				L77.589,297.677z"/>
			<path style="fill:#FFFFFF;stroke:#263238;stroke-linecap:round;stroke-linejoin:round;stroke-miterlimit:10;" d="
				M126.636,214.377l-11.053-4.799l-17.572,1.425l-6.761,3.743c1.259,4.372,5.969,17.823,16.497,18.816
				C117.55,234.486,124.182,220.575,126.636,214.377z"/>
			<path style="fill:#263238;stroke:#263238;stroke-linecap:round;stroke-linejoin:round;stroke-miterlimit:10;" d="M97.529,212.564
				c0,0,4.772,6.363,9.367,8.13c4.595,1.767,8.66-6.186,9.897-8.307c1.237-2.121,1.591-2.828,1.591-2.828l-20.374,1.443
				C98.011,211.002,95.762,210.267,97.529,212.564z"/>
		</g>
		<g>
			<path style="fill:#92E3A9;stroke:#263238;stroke-linecap:round;stroke-linejoin:round;stroke-miterlimit:10;" d="
				M115.583,209.577c0,0-0.475,102.11,0.237,102.347c0.712,0.237,22.797-8.786,23.984-9.736c1.187-0.95,2.612-2.612,2.612-2.612
				l0.475-38.232c0,0,7.361,4.749,9.499,5.224c2.137,0.475,8.786-0.712,9.261-3.324s-7.836-23.984-9.974-30.633
				c-2.137-6.649-5.462-12.823-6.411-14.96c-0.95-2.137-10.449-3.325-16.148-4.987C123.419,211.002,115.583,209.577,115.583,209.577
				z"/>
			<path style="fill:#92E3A9;stroke:#263238;stroke-linecap:round;stroke-linejoin:round;stroke-miterlimit:10;" d="
				M115.821,230.474l2.612-3.799c0,0,6.412,5.462,7.124,3.562c0.712-1.9-4.173-17.233-4.987-20.185
				c-0.814-2.951-5.224-2.85-5.462-1.662C114.871,209.577,115.821,230.474,115.821,230.474z"/>
		</g>
		<path style="fill:#263238;stroke:#263238;stroke-linecap:round;stroke-linejoin:round;stroke-miterlimit:10;" d="M129.119,212.665
			c0,0-0.475,33.958,1.187,42.744c1.662,8.786,12.586,32.77,12.586,32.77v-9.024c0,0-6.411-23.509-7.361-30.395
			c-0.95-6.886-0.712-34.432-0.712-34.432L129.119,212.665z"/>
		<g>
			<path style="fill:#92E3A9;stroke:#263238;stroke-linecap:round;stroke-linejoin:round;stroke-miterlimit:10;" d="
				M100.109,212.824c0,0,0.382,95.759,0.382,97.094c0,1.335-2.098,0.572-3.624-0.191c-1.526-0.763-16.786-5.913-20.983-7.63
				c-4.197-1.717-4.769-0.572-4.578-2.48c0.191-1.908,0.191-8.202,0.191-9.156c0-0.954,1.335-20.411,1.335-20.411
				s-8.966,3.243-14.307,1.145s-7.821-4.578-7.249-6.486c0.572-1.908,10.682-26.706,11.445-28.995
				c0.763-2.289,2.67-15.26,3.815-16.405c1.145-1.145,26.896-7.63,28.422-8.775c1.526-1.145,3.052-0.954,3.624-0.954
				C99.155,209.581,99.727,209.199,100.109,212.824z"/>
			<path style="fill:none;stroke:#263238;stroke-linecap:round;stroke-linejoin:round;stroke-miterlimit:10;" d="M78.015,243.807
				c0.242,1.735,0.367,3.395,0.157,4.307c-0.572,2.48-5.341,21.937-5.341,21.937"/>
			<path style="fill:none;stroke:#263238;stroke-linecap:round;stroke-linejoin:round;stroke-miterlimit:10;" d="M76.837,237.622
				c0,0,0.251,1.054,0.544,2.517"/>
			<path style="fill:#92E3A9;stroke:#263238;stroke-linecap:round;stroke-linejoin:round;stroke-miterlimit:10;" d="M97.438,208.246
				c0,0-1.717,2.098-1.908,3.815c-0.191,1.717-2.671,10.873-4.006,13.734c-1.335,2.861-1.908,4.578-1.908,4.578
				s1.717,0.572,3.434-0.382c1.717-0.954,4.578-2.48,4.578-2.48l2.289,2.48l0.191-17.168
				C100.109,212.824,100.299,206.72,97.438,208.246z"/>
		</g>
		<g>
			<path style="fill:#FFFFFF;stroke:#263238;stroke-linecap:round;stroke-linejoin:round;stroke-miterlimit:10;" d="M92.097,193.367
				c0,0-3.052-4.006-3.243-1.717c-0.191,2.289-0.763,5.15,0.763,7.058c1.526,1.908,2.671,2.48,2.671,2.48s2.48,6.486,4.197,8.202
				c1.717,1.717,2.671,5.532,7.439,7.439c4.769,1.908,7.249,0.763,9.729-0.954c1.194-0.827,5.532-7.439,6.104-8.775
				c0.572-1.335,0.763-6.104,0.763-6.104s3.243-4.578,3.434-7.058c0.191-2.48-0.191-4.006-0.954-4.006c-0.763,0-1.717,0-1.717,0
				s2.289-9.347,2.098-12.399c-0.191-3.052-5.723-9.156-9.919-12.018c-4.197-2.861-12.971-1.908-17.549,0.954
				c-4.578,2.861-9.347,8.965-8.202,11.445S92.097,193.367,92.097,193.367z"/>
			<path style="fill:none;stroke:#263238;stroke-linecap:round;stroke-linejoin:round;stroke-miterlimit:10;" d="M104.66,204.828
				c0,0,0.712,1.187,2.85,1.662c2.137,0.475,3.087-1.662,3.087-1.662"/>
			<path style="fill:none;stroke:#263238;stroke-linecap:round;stroke-linejoin:round;stroke-miterlimit:10;" d="M103.71,208.39
				c0,0,1.425,1.187,4.037,1.187s4.037-1.425,4.037-1.425"/>
			<g>
				<path style="fill:none;stroke:#263238;stroke-linecap:round;stroke-linejoin:round;stroke-miterlimit:10;" d="M92.097,193.367
					c0,0-0.153-0.199-0.385-0.476L92.097,193.367z"/>
				<path style="fill:#263238;stroke:#263238;stroke-linecap:round;stroke-linejoin:round;stroke-miterlimit:10;" d="
					M113.461,165.517c-4.197-2.861-12.971-1.908-17.549,0.954c-4.578,2.861-9.347,8.965-8.202,11.445s4.387,15.451,4.387,15.451
					s1.526,0.382,2.098-0.954c0.572-1.335-0.381-3.243,0.572-4.96c0.773-1.391,3.033-1.287,4.376-1.601
					c-0.995,0.65-2.273,1.852-0.751,2.554c2.48,1.145,4.006-0.572,9.156-3.243c5.15-2.671,5.723-5.341,5.723-5.341
					s2.48,2.098,2.48,4.387c0,2.289-0.191,5.532,1.145,5.913c1.335,0.382,2.289,0.572,2.289,0.572s-0.572,2.48,0.763,2.671
					c0.981,0.14,1.343-2.187,1.467-3.434c-0.08,0-0.132,0-0.132,0s2.289-9.347,2.098-12.399
					C123.19,174.482,117.658,168.378,113.461,165.517z"/>
			</g>
			<path style="fill:none;stroke:#263238;stroke-linecap:round;stroke-linejoin:round;stroke-miterlimit:10;" d="M110.6,197.373
				c0,0,2.48,2.098,6.295-0.382"/>
			<path style="fill:none;stroke:#263238;stroke-linecap:round;stroke-linejoin:round;stroke-miterlimit:10;" d="M96.866,197.373
				c0,0,2.48,2.098,6.295-0.382"/>
			<path style="fill:none;stroke:#263238;stroke-linecap:round;stroke-linejoin:round;stroke-miterlimit:10;" d="M96.294,194.511
				c0,0,3.052-1.335,6.104-0.572"/>
			<path style="fill:none;stroke:#263238;stroke-linecap:round;stroke-linejoin:round;stroke-miterlimit:10;" d="M110.791,193.939
				c0,0,2.671-0.954,5.532,0.191"/>
		</g>
		<g>
			<path style="fill:#92E3A9;stroke:#263238;stroke-linecap:round;stroke-linejoin:round;stroke-miterlimit:10;" d="M56.235,263.946
				c0,0,11.827-0.763,13.544-0.763c1.717,0,3.052,3.624,3.434,5.723s0.572,6.867,0.572,6.867s-5.532,7.821-9.347,9.156
				c-3.815,1.335-12.208-1.145-14.307-2.861s-3.815-9.538-2.671-12.208c1.145-2.671,3.624-4.387,4.578-5.341"/>
			<polygon style="fill:#263238;stroke:#263238;stroke-linecap:round;stroke-linejoin:round;stroke-miterlimit:10;" points="
				85.953,240.557 91.818,264.832 102.896,262.388 98.172,238.765 			"/>
			<g>
				<path style="fill:#FFFFFF;stroke:#263238;stroke-linecap:round;stroke-linejoin:round;stroke-miterlimit:10;" d="
					M79.698,262.992l3.243-3.243c0,0,1.335-5.15,2.098-6.676c0.763-1.526,2.861-4.197,2.861-4.197l0.763,2.48
					c0,0,7.249-3.243,8.393-3.243c1.145,0,1.526,1.145,1.526,1.717s-8.012,4.387-8.012,4.387l-0.954,1.335
					c0,0,6.867-2.671,8.012-3.434c1.145-0.763,2.48-0.954,2.48-0.954s0.954,1.526,0.572,2.289s-0.763,1.717-0.763,1.717
					s0.139,0.37-0.16,1.487c-0.495,1.842-2.283,3.07-2.283,3.07s-2.517,3.073-3.852,4.409c-1.335,1.335-6.104,2.48-6.104,2.48
					l-8.965,5.723c0,0-1.335-1.145-1.335-4.387C77.218,264.709,79.698,262.992,79.698,262.992z"/>
				<path style="fill:none;stroke:#263238;stroke-linecap:round;stroke-linejoin:round;stroke-miterlimit:10;" d="M100.109,254.217
					c0,0-7.63,3.815-9.538,5.15"/>
				
					<line style="fill:none;stroke:#263238;stroke-linecap:round;stroke-linejoin:round;stroke-miterlimit:10;" x1="90.863" y1="262.641" x2="97.475" y2="259.728"/>
			</g>
			<path style="fill:#92E3A9;stroke:#263238;stroke-linecap:round;stroke-linejoin:round;stroke-miterlimit:10;" d="M81.224,261.085
				c0,0-2.48,3.052-2.289,5.913c0.191,2.861,2.289,7.63,2.289,7.63s-3.434,2.289-4.769,3.624c-1.335,1.335-4.387,2.098-5.532-0.382
				s-3.052-8.012-2.289-11.254s2.289-4.197,3.052-4.387C72.449,262.039,79.889,261.276,81.224,261.085z"/>
		</g>
		<g>
			<path style="fill:#FFFFFF;stroke:#263238;stroke-linecap:round;stroke-linejoin:round;stroke-miterlimit:10;" d="
				M142.417,249.709c0,0-3.325-9.974-4.512-11.873c-1.187-1.9-3.087-3.087-3.799-3.087c-0.712,0-4.987-1.187-6.174-1.187
				c-1.187,0-3.325,0.712-2.85,2.85c0.475,2.137,0.475,2.137,0.475,2.137s-0.475,3.799-0.475,4.749c0,0.95,1.9,2.612,1.9,2.612
				s0.237,2.85,0.712,3.799c0.475,0.95,8.074,3.087,8.074,3.087l0.712,0.95l1.425,0.712L142.417,249.709z"/>
			<path style="fill:#92E3A9;stroke:#263238;stroke-linecap:round;stroke-linejoin:round;stroke-miterlimit:10;" d="
				M146.454,253.984c0,0,6.412,3.562,8.311,4.274s4.274,0.95,6.887,4.987c2.612,4.037,1.662,10.686,0,14.248
				c-1.662,3.562-7.124,4.512-10.686,4.512c-3.562,0-7.124-7.361-9.024-9.499c-1.9-2.137-4.987-8.311-4.987-8.311L146.454,253.984z"
				/>
			<path style="fill:#92E3A9;stroke:#263238;stroke-linecap:round;stroke-linejoin:round;stroke-miterlimit:10;" d="
				M143.367,248.284c0,0-4.749,2.612-6.886,5.462c-2.137,2.85-4.037,5.462-4.037,6.887s4.037,6.887,4.037,6.887l12.348-12.823
				C148.828,254.696,145.979,249.947,143.367,248.284z"/>
		</g>
		<g>
			<path style="fill:#FFFFFF;stroke:#263238;stroke-linecap:round;stroke-linejoin:round;stroke-miterlimit:10;" d="M74.06,448.276
				l-1.955,5.539c0,0-5.865,2.281-6.843,3.91c-0.978,1.629-0.978,7.168-0.978,7.168h24.112c0,0,0.652-5.213,0.652-8.146
				s0-6.842,0-6.842L74.06,448.276z"/>
			<path style="fill:#FFFFFF;stroke:#263238;stroke-linecap:round;stroke-linejoin:round;stroke-miterlimit:10;" d="M88.686,462.287
				H64.382c-0.096,1.428-0.097,2.607-0.097,2.607h24.112C88.397,464.894,88.536,463.775,88.686,462.287z"/>
		</g>
	</g>
</g>
<g id="Car">
	<g>
		<g>
			<path style="fill:#263238;stroke:#263238;stroke-linecap:round;stroke-linejoin:round;stroke-miterlimit:10;" d="M352.526,452.33
				h-38.226c0,0,1.089-18.26,7.892-26.152c6.803-7.892,17.144-8.708,25.581-4.082c8.436,4.626,8.98,25.308,8.98,25.308h65.312
				c0,0,5.987-23.404,19.594-25.036c13.607-1.633,16.872,22.043,16.872,22.043l-2.346,7.919H352.526z"/>
			<g>
				<path style="fill:#263238;stroke:#263238;stroke-linecap:round;stroke-linejoin:round;stroke-miterlimit:10;" d="
					M445.029,446.635c0-4.286-1.088-8.224-2.905-11.34v-6.919h-7.768c-7.409,0-13.415,8.175-13.415,18.259
					s6.006,18.259,13.415,18.259h7.768v-6.919C443.941,454.859,445.029,450.921,445.029,446.635z"/>
				<g>
					
						<ellipse style="fill:#263238;stroke:#263238;stroke-linecap:round;stroke-linejoin:round;stroke-miterlimit:10;" cx="442.68" cy="446.666" rx="10.76" ry="18.228"/>
					
						<ellipse style="fill:#FFFFFF;stroke:#263238;stroke-linecap:round;stroke-linejoin:round;stroke-miterlimit:10;" cx="442.68" cy="446.666" rx="8.271" ry="14.012"/>
				</g>
			</g>
			<g>
				<path style="fill:#263238;stroke:#263238;stroke-linecap:round;stroke-linejoin:round;stroke-miterlimit:10;" d="
					M338.93,446.286c0-4.368-1.109-8.382-2.96-11.556v-7.052h-10.711c-7.55,0-13.671,8.331-13.671,18.608
					s6.121,18.608,13.671,18.608h10.711v-7.052C337.822,454.668,338.93,450.654,338.93,446.286z"/>
				<g>
					
						<ellipse style="fill:#263238;stroke:#263238;stroke-linecap:round;stroke-linejoin:round;stroke-miterlimit:10;" cx="335.97" cy="446.286" rx="13.671" ry="18.608"/>
					
						<ellipse style="fill:#FFFFFF;stroke:#263238;stroke-linecap:round;stroke-linejoin:round;stroke-miterlimit:10;" cx="335.97" cy="446.286" rx="10.509" ry="14.304"/>
				</g>
			</g>
			<path style="fill:#263238;stroke:#263238;stroke-linecap:round;stroke-linejoin:round;stroke-miterlimit:10;" d="
				M398.439,428.438c-0.186,0-0.371,0.008-0.555,0.024v-0.086h-7.768c-7.409,0-13.415,8.175-13.415,18.259
				c0,10.084,6.006,18.259,13.415,18.259h7.768v-0.024c0.184,0.016,0.369,0.024,0.555,0.024c5.942,0,10.76-8.161,10.76-18.228
				C409.199,436.599,404.382,428.438,398.439,428.438z"/>
			<path style="fill:#263238;stroke:#263238;stroke-linecap:round;stroke-linejoin:round;stroke-miterlimit:10;" d="
				M274.965,427.678h-10.711c-7.55,0-13.671,8.331-13.671,18.608s6.121,18.608,13.671,18.608h10.711
				c7.55,0,13.671-8.331,13.671-18.608S282.515,427.678,274.965,427.678z"/>
			<path style="fill:#FFFFFF;stroke:#263238;stroke-linecap:round;stroke-linejoin:round;stroke-miterlimit:10;" d="
				M466.604,432.742c-0.506-2.532-0.253-2.785-2.532-5.57c-2.279-2.785-2.785-4.557-2.785-4.557s1.266-5.823,1.266-7.595
				c0-1.772-2.785-1.266-2.785-1.266s-0.759-2.785-2.785-3.798c-2.025-1.013-3.798-1.519-8.608-4.304
				c-4.81-2.785-15.786-10.12-19.078-11.639c-3.291-1.519-7.579-7.026-29.784-8.361c-15.854-0.953-39.241-1.038-39.241-1.038
				s-8.608-0.253-16.709,0.506c-4.382,0.411-8.3,0.122-19.164,2.838c-6.287,1.572-41.44,16.898-41.44,16.898
				s-31.936,8.919-35.389,11.508c-3.452,2.59-4.028,7.481-4.028,7.481s-4.316,3.165-4.028,4.891
				c0.288,1.726,0.288,2.877,0.288,2.877v22.811h3.566l2.445-1.397h40.864l3.144,1.397h29.102h1.248
				c-0.098-1.149-0.153-4.416-0.153-5.608c0-14.332,7.311-25.95,16.329-25.95c9.018,0,16.329,11.618,16.329,25.95
				c0,1.192-0.055,2.363-0.153,3.512h76.347c-0.023-0.575-0.039-1.154-0.039-1.74c0-13.353,6.132-24.177,13.695-24.177
				s13.695,10.825,13.695,24.177c0,0.586-0.016,1.165-0.039,1.74h8.036c2.427-1.425,0.611-4.651,0.611-4.651
				S467.111,435.273,466.604,432.742z"/>
			<path style="fill:#263238;stroke:#263238;stroke-linecap:round;stroke-linejoin:round;stroke-miterlimit:10;" d="
				M363.312,397.273c0,0-15.696,10.405-15.443,11.164c0.253,0.759,9.114,2.025,11.393,2.025s70.887,0,70.887,0
				s8.608-1.772,9.874-3.291c1.266-1.519-17.722-13.418-24.557-15.696s-20.161-2.119-33.671-1.038
				C371.699,391.246,363.312,397.273,363.312,397.273z"/>
			<g>
				<path style="fill:none;stroke:#263238;stroke-linecap:round;stroke-linejoin:round;stroke-miterlimit:10;" d="M399.895,418.564
					h-7.089c-0.769,0-1.392-0.623-1.392-1.392v0c0-0.769,0.623-1.392,1.392-1.392h7.089c0.769,0,1.392,0.623,1.392,1.392l0,0
					C401.287,417.941,400.664,418.564,399.895,418.564z"/>
				<path style="fill:none;stroke:#263238;stroke-linecap:round;stroke-linejoin:round;stroke-miterlimit:10;" d="M431.414,418.564
					h-7.089c-0.769,0-1.392-0.623-1.392-1.392l0,0c0-0.769,0.623-1.392,1.392-1.392h7.089c0.769,0,1.392,0.623,1.392,1.392l0,0
					C432.807,417.941,432.183,418.564,431.414,418.564z"/>
			</g>
			<g>
				<polyline style="fill:none;stroke:#263238;stroke-linecap:round;stroke-linejoin:round;stroke-miterlimit:10;" points="
					400.528,411.223 403.566,415.78 403.313,443.122 404.832,446.16 403.313,449.704 405.338,451.983 				"/>
				<path style="fill:none;stroke:#263238;stroke-linecap:round;stroke-linejoin:round;stroke-miterlimit:10;" d="M434.959,409.957
					l2.025,2.279l-3.797,17.215l-8.101,19.241c0,0-5.063,0.506-5.823,0.506c-0.759,0-58.482,0.506-58.482,0.506
					s-0.759-1.266-1.519-2.785s-3.291-22.532-3.291-27.342c0-4.81-2.279-8.861-2.279-8.861"/>
			</g>
			<path style="fill:#263238;stroke:#263238;stroke-linecap:round;stroke-linejoin:round;stroke-miterlimit:10;" d="M283.362,405.4
				h48.304c0,0,7.089,0.506,12.911-3.291c5.823-3.797,9.367-5.088,14.684-8.379c5.316-3.291,7.342-4.304,7.342-4.304
				s-17.975-1.519-28.355-1.519c-10.38,0-14.937,1.266-14.937,1.266L283.362,405.4z"/>
			<g>
				<g>
					<path style="fill:none;stroke:#263238;stroke-linecap:round;stroke-linejoin:round;stroke-miterlimit:10;" d="M321.619,415.078
						c0,0,5.997-0.817,7.009-1.324c1.013-0.506,6.076-6.329,6.076-6.329"/>
					<path style="fill:#666666;stroke:#263238;stroke-linecap:round;stroke-linejoin:round;stroke-miterlimit:10;" d="
						M297.629,418.371l23.99-3.293c0,0-17.091,10.349-19.6,10.349c-2.509,0-21.168,0.627-21.168,0.627l4.704-4.077l5.488-2.822
						L297.629,418.371z"/>
					<path style="fill:#FFFFFF;stroke:#263238;stroke-linecap:round;stroke-linejoin:round;stroke-miterlimit:10;" d="
						M318.357,417.02l-9.673,1.209l-6.985,4.657l-18.592,1.213l-2.256,1.955c0,0,18.659-0.627,21.168-0.627
						C303.833,425.427,313.269,420.017,318.357,417.02z"/>
				</g>
				<path style="fill:#666666;stroke:#263238;stroke-linecap:round;stroke-linejoin:round;stroke-miterlimit:10;" d="
					M247.61,421.507l-1.254,4.077l-2.81-1.737c0,0-0.053-2.852,2.026-4.848L247.61,421.507z"/>
				<path style="fill:#FFFFFF;stroke:#263238;stroke-linecap:round;stroke-linejoin:round;stroke-miterlimit:10;" d="M246.68,424.53
					l-3.011-1.853c-0.13,0.694-0.123,1.17-0.123,1.17l2.81,1.737L246.68,424.53z"/>
				<path style="fill:#263238;stroke:#263238;stroke-linecap:round;stroke-linejoin:round;stroke-miterlimit:10;" d="
					M245.571,418.998c0,0,2.038,2.979,7.997,4.547l1.254,5.174h4.39l4.077-4.547c0,0,29.948-3.293,30.732-3.606
					c0.784-0.314,3.606-2.195,3.606-2.195s-33.085,2.352-34.025,2.352c-0.941,0-9.408-0.47-9.408-0.47l-7.683-2.666L245.571,418.998
					z"/>
			</g>
			<path style="fill:#263238;stroke:#263238;stroke-linecap:round;stroke-linejoin:round;stroke-miterlimit:10;" d="
				M303.009,446.238c0,1.299-1.369,2.352-3.058,2.352c-1.689,0-3.058-1.053-3.058-2.352c0-1.299,1.369-2.352,3.058-2.352
				C301.64,443.887,303.009,444.94,303.009,446.238z"/>
			<path style="fill:#263238;stroke:#263238;stroke-linecap:round;stroke-linejoin:round;stroke-miterlimit:10;" d="M462.554,415.02
				c0-1.772-1.644-1.184-2.785-1.266l-5.063,1.266l-1.013,3.544l7.595,4.051C461.288,422.615,462.554,416.792,462.554,415.02z"/>
			<g>
				<path style="fill:none;stroke:#263238;stroke-linecap:round;stroke-linejoin:round;stroke-miterlimit:10;" d="M445.588,411.813
					c3.968-0.111,7.441-0.151,10.255-0.103"/>
				<path style="fill:none;stroke:#263238;stroke-linecap:round;stroke-linejoin:round;stroke-miterlimit:10;" d="M368.743,416.627
					c22.128-1.742,51.522-3.873,71.708-4.642"/>
				<path style="fill:none;stroke:#263238;stroke-linecap:round;stroke-linejoin:round;stroke-miterlimit:10;" d="M343.571,418.684
					c4.709-0.4,12.105-1.018,20.97-1.725"/>
				<path style="fill:none;stroke:#263238;stroke-linecap:round;stroke-linejoin:round;stroke-miterlimit:10;" d="M338.023,419.161
					c0,0,1.181-0.103,3.315-0.286"/>
			</g>
			<g>
				<polygon style="fill:#263238;stroke:#263238;stroke-linecap:round;stroke-linejoin:round;stroke-miterlimit:10;" points="
					245.415,429.19 273.482,429.19 280.067,432.796 288.848,447.065 280.224,449.574 241.965,449.574 240.24,445.183 
					241.181,431.699 				"/>
				<rect x="245.571" y="432.639" style="fill:#FFFFFF;" width="21.325" height="8.938"/>
				
					<line style="fill:none;stroke:#737373;stroke-linecap:round;stroke-linejoin:round;stroke-miterlimit:10;" x1="279.316" y1="434.097" x2="269.798" y2="434.097"/>
				
					<line style="fill:none;stroke:#737373;stroke-linecap:round;stroke-linejoin:round;stroke-miterlimit:10;" x1="281.82" y1="437.604" x2="270.299" y2="437.604"/>
				
					<line style="fill:none;stroke:#737373;stroke-linecap:round;stroke-linejoin:round;stroke-miterlimit:10;" x1="284.325" y1="441.11" x2="270.299" y2="441.11"/>
				
					<line style="fill:none;stroke:#737373;stroke-linecap:round;stroke-linejoin:round;stroke-miterlimit:10;" x1="286.83" y1="444.616" x2="256.774" y2="444.616"/>
				
					<line style="fill:none;stroke:#737373;stroke-linecap:round;stroke-linejoin:round;stroke-miterlimit:10;" x1="286.83" y1="447.764" x2="242.142" y2="447.764"/>
			</g>
			<g>
				<path style="fill:#FFFFFF;stroke:#263238;stroke-linecap:round;stroke-linejoin:round;stroke-miterlimit:10;" d="
					M375.427,400.942h-11.674c-2.914,1.545-5.234,3.125-5.123,4.366c0.282,3.145,1.397,4.366,2.794,4.366c1.397,0,11.642,0,11.642,0
					s5.123-2.911,4.657-5.821C377.548,402.751,376.572,401.755,375.427,400.942z"/>
				
					<line style="fill:#FFFFFF;stroke:#263238;stroke-linecap:round;stroke-linejoin:round;stroke-miterlimit:10;" x1="358.63" y1="405.307" x2="373.649" y2="405.307"/>
				<path style="fill:#263238;stroke:#263238;stroke-linecap:round;stroke-linejoin:round;stroke-miterlimit:10;" d="
					M361.424,409.673l0.699,3.784l1.015,1.008l3.176-0.658c0,0-1.397,0.349-1.048-4.191L361.424,409.673z"/>
			</g>
			
				<line style="fill:#FFFFFF;stroke:#263238;stroke-linecap:round;stroke-linejoin:round;stroke-miterlimit:10;" x1="284.592" y1="433.553" x2="318.714" y2="433.553"/>
			<polygon style="fill:#263238;stroke:#263238;stroke-linecap:round;stroke-linejoin:round;stroke-miterlimit:10;" points="
				289.318,449.73 302.96,449.73 305.24,448.117 301.364,432.975 290.259,427.779 300.786,434.421 304.057,446.438 301,448.79 			
				"/>
		</g>
	</g>
</g>
<g id="Floor">
	
		<line style="fill:none;stroke:#263238;stroke-linecap:round;stroke-linejoin:round;stroke-miterlimit:10;" x1="19.771" y1="464.894" x2="476.652" y2="464.894"/>
</g>
</svg>
